<?xml version="1.0" encoding="UTF-8"?>
<svg width="128" height="128" viewBox="0 0 128 128" fill="none" xmlns="http://www.w3.org/2000/svg">
  <!-- Brain Lobes -->
  <path d="M59.5 20C48.5 20 43 27.5 42 36C41 44.5 44 52 49 56.5C54 61 60 63 65.5 63C71 63 77 63 82 58.5C87 54 89 48 89 41.5C89 35 85.5 29 80 25C74.5 21 65.5 20 59.5 20Z" fill="#f0abfc" stroke="#9333ea" stroke-width="2"/>
  <path d="M48 58C39.5 58 34 64 33 71.5C32 79 35 85 40 89C45 93 51 94.5 56.5 94.5C62 94.5 68 94.5 73 90.5C78 86.5 80 81 80 75.5C80 70 76.5 64.5 71 61C65.5 57.5 56.5 58 48 58Z" fill="#c4b5fd" stroke="#7c3aed" stroke-width="2"/>
  <path d="M81 29C88 29 94.5 34 96 40C97.5 46 95 51.5 91 55C87 58.5 81.5 60 77 60C72.5 60 67.5 60 64 56.5C60.5 53 59 48 59 43C59 38 61.5 33.5 66 30.5C70.5 27.5 77 29 81 29Z" fill="#a5b4fc" stroke="#4f46e5" stroke-width="2"/>
  <path d="M77 69C83 69 87 73 88 77.5C89 82 87 85.5 84 88C81 90.5 77 91.5 73.5 91.5C70 91.5 66.5 91.5 64 89C61.5 86.5 60.5 83 60.5 79.5C60.5 76 62.5 72.5 66 70.5C69.5 68.5 75 69 77 69Z" fill="#93c5fd" stroke="#2563eb" stroke-width="2"/>
  <path d="M90 53C94.5 53 98 56 99 59C100 62 98.5 64.5 96.5 66C94.5 67.5 92 68.5 89.5 68.5C87 68.5 84.5 68.5 83 67C81.5 65.5 81 63 81 60.5C81 58 82.5 55.5 85 54C87.5 52.5 91 53 90 53Z" fill="#bae6fd" stroke="#0284c7" stroke-width="2"/>
  <path d="M38 37C31 37 24.5 42 23 48C21.5 54 24 59.5 28 63C32 66.5 37.5 68 42 68C46.5 68 51.5 68 55 64.5C58.5 61 60 56 60 51C60 46 57.5 41.5 53 38.5C48.5 35.5 42 37 38 37Z" fill="#fda4af" stroke="#e11d48" stroke-width="2"/>
  <path d="M38 77C32 77 28 81 27 85.5C26 90 27.5 93.5 30.5 96C33.5 98.5 37.5 99.5 41 99.5C44.5 99.5 48 99.5 50.5 97C53 94.5 54 91 54 87.5C54 84 52 80.5 48.5 78.5C45 76.5 39.5 77 38 77Z" fill="#fdba74" stroke="#ea580c" stroke-width="2"/>
  <path d="M25 61C20.5 61 17 64 16 67C15 70 16.5 72.5 18.5 74C20.5 75.5 23 76.5 25.5 76.5C28 76.5 30.5 76.5 32 75C33.5 73.5 34 71 34 68.5C34 66 32.5 63.5 30 62C27.5 60.5 24 61 25 61Z" fill="#fcd34d" stroke="#d97706" stroke-width="2"/>
  
  <!-- Neural Connections -->
  <path d="M65 40C68 44 70 49 67 53" stroke="#6366f1" stroke-width="1.5" stroke-dasharray="2 2"/>
  <path d="M65 78C68 74 70 69 67 65" stroke="#6366f1" stroke-width="1.5" stroke-dasharray="2 2"/>
  <path d="M75 50C79 52 83 53 86 50" stroke="#6366f1" stroke-width="1.5" stroke-dasharray="2 2"/>
  <path d="M55 50C51 52 47 53 44 50" stroke="#6366f1" stroke-width="1.5" stroke-dasharray="2 2"/>
  <path d="M55 78C51 76 47 75 44 78" stroke="#6366f1" stroke-width="1.5" stroke-dasharray="2 2"/>
  <path d="M43 60C40 58 36 57 33 60" stroke="#6366f1" stroke-width="1.5" stroke-dasharray="2 2"/>
  <path d="M86 60C89 58 93 57 96 60" stroke="#6366f1" stroke-width="1.5" stroke-dasharray="2 2"/>
  
  <!-- Neural Nodes -->
  <circle cx="65" cy="40" r="2" fill="#4338ca"/>
  <circle cx="65" cy="78" r="2" fill="#4338ca"/>
  <circle cx="75" cy="50" r="2" fill="#4338ca"/>
  <circle cx="55" cy="50" r="2" fill="#4338ca"/>
  <circle cx="55" cy="78" r="2" fill="#4338ca"/>
  <circle cx="86" cy="60" r="2" fill="#4338ca"/>
  <circle cx="43" cy="60" r="2" fill="#4338ca"/>
</svg>
